<svg version="1.1" xmlns="http://www.w3.org/2000/svg" width="128" height="128" viewBox="0 0 200 200">
	<defs>
		<style><![CDATA[
			#lorentz {
				stroke-dasharray: 2300;
				-webkit-animation: dash 5s linear infinite;
				-moz-animation: dash 5s linear infinite;
				-o-animation: dash 5s linear infinite;
				animation: dash 5s linear infinite;
			}

			@-webkit-keyframes dash {
				to {
					stroke-dashoffset: 4600;
				}
			}

			@-moz-keyframes dash {
				to {
					stroke-dashoffset: 4600;
				}
			}
			@-o-keyframes dash {
				to {
					stroke-dashoffset: 4600;
				}
			}

			@keyframes dash {
				to {
					stroke-dashoffset: 230;
				}
			}		
		]]>
		</style>
		<filter id="blur" x="-0.02" y="-0.02">
		  <feGaussianBlur in="SourceGraphic" stdDeviation="0.3" />
		</filter>		
	</defs>
	<path id="lorentz" filter="url(#blur)" d="M76.98729116160337 156.5756806737506 L75.61054877938517 154.91229424259893 L74.09700865962776 152.90133486261155 L72.45799757016027 150.50557306310222 L70.7065623727431 147.6889503731695 L68.85854285708933 144.41906525595311 L66.93367282870818 140.67048042269838 L64.95667625968858 136.4289271238393 L62.95829491472246 131.69637645703443 L60.976146339153615 126.49677460038379 L59.05526896277297 120.88198884135275 L57.24817041948295 114.93719367945464 L55.61416687364675 108.78458403554562 L54.21780118566407 102.5840260398573 L53.126175639464336 96.52918565831237 L52.405148697871304 90.83797966616802 L52.114532388083674 85.73700597182055 L52.30267292909143 81.4409323772962 L53.001056018325585 78.12942436913733 L54.21977267870347 75.92558380300622 L55.94472180463103 74.88042295971528 L58.13724538178339 74.96712776259679 L60.73649144557291 76.08675694687037 L63.664266217548814 78.08419007510565 L66.83162725984563 80.77060609559908 L70.14614724646458 83.94749457797934 L73.5187389634392 87.42754819234577 L76.86916303671714 91.04940476918331 L80.12973324122875 94.68529250686171 L83.24714761034765 98.24238820686361 L86.18269297354686 101.6596895824758 L88.91124474890486 104.90241253598872 L91.41952129329779 107.95560204839458 L93.70399565014729 110.81810006348196 L95.76876656822736 113.49747871526729 L97.62358377784875 116.00614031458556 L99.28213191175146 118.35853208234778 L100.76061130316596 120.5692985506524 L102.0766114579741 122.65215667102947 L103.24824947115857 124.61929021188483 L104.2935353396892 126.48109374848949 L105.22992404816782 128.24613582910126 L106.07401677884334 129.92124715945846 L106.84137817185297 131.51166943655477 L107.54644175779569 133.02122317972436 L108.2024807033436 134.4524692944716 L108.82162547958086 135.80685037833456 L109.41491385750099 137.08480518552568 L109.99236176035959 138.28585429534417 L110.56304602155419 139.408657749342 L111.13519209167629 140.4510468961896 L111.71626129109977 141.41003339742488 L112.31303338783889 142.28179865080136 L112.93168115621219 143.06166702850348 L113.57783419143652 143.74406648166894 L114.25662966148602 144.3224803596496 L114.9727479071334 144.78939483164214 L115.73043088729217 145.13624716131505 L116.53348144213071 145.35338134228408 L117.38524124581176 145.43001931425513 L118.28854518487458 145.35425819199477 L119.24564977794374 145.1131066703777 L120.25813321302802 144.6925769879967 L121.32676470545042 144.07785242642316 L122.45134128277596 143.2535540504503 L123.63049092260113 142.20413382488013 L124.86144237514785 140.91442368122063 L126.1397641924863 139.37037051985692 L127.45907867042928 137.55998408755937 L128.8107607830994 135.47451632482102 L130.18363788443654 133.10987497478186 L131.56371295424384 130.46824878364498 L132.93394221865015 127.5598847917806 L134.27410643487005 124.40490966844555 L135.56082283768268 121.03502900620788 L136.76774991926834 117.49487715885654 L137.8660374571993 113.84273693639766 L138.82506670588424 110.15032006061854 L139.61350769843284 106.50131637230243 L140.20069037714367 102.98850244301175 L140.55824406116096 99.70936052372201 L140.6619090880154 96.76039132334814 L140.49337280725757 94.23057828332563 L140.0419405353288 92.19471923422645 L139.305833337381 90.70750873679285 L138.2929194450555 89.79926087722059 L137.02073943212216 89.47397121357187 L135.5157720369566 89.71004834721515 L133.81199258253667 90.4635816035001 L131.94887711947837 91.67357149331295 L129.96907996830492 93.2682502863173 L127.9160442682691 95.17153080059859 L125.8317902069393 97.30874250870285 L123.75507189201727 99.61108315181885 L121.72001792079001 102.01853791214194 L119.75529151518546 104.48130939752602 L117.88373912724091 106.96000477108501 L116.12245051354671 109.42492509645494 L114.4831302694365 111.85481104239435 L112.97267736174643 114.23534874752306 L111.59387937307804 116.55766163628323 L110.34614573534995 118.81693297244243 L109.22622407231289 121.0112347458522 L108.2288624461611 123.14058717865449 L107.34739596636174 125.20623981046992 L106.57424824012016 127.21014674007534 L105.90134666421505 129.15460109396986 L105.3204561092452 131.04199330792136 L104.82343878908614 132.8746612702568 L104.40244967309877 134.65480560493765 L104.05007721965549 136.3844489781411 L103.75943890069692 138.06542350826587 L103.52424025041802 139.6993747770602 L103.33880521660153 141.28777447219682 L103.19808455975412 142.83193638079575 L103.09764802105134 144.3330324125921 L103.03366501752869 145.79210669818997 L103.00287775030021 147.21008671662887 L103.00256984141228 148.5877909753329 L103.03053294974715 149.92593309095687 L103.0850332524507 151.22512227656256 L103.16477920826813 152.48586028444362 L103.26889163354147 153.70853482410723 L103.39687681016781 154.89340939798853 L103.54860309706491 156.04060939031555 L103.72428132241063 157.15010411695386 L103.92444908336822 158.22168440082413 L104.14995896402405 159.2549350799613 L104.40197059227273 160.2492016826291 L104.68194638430784 161.20355031400533 L104.99165076347295 162.1167195892055 L105.33315258086245 162.98706321542844 L105.7088304004244 163.8124815704155 L106.12138023307185 164.59034034585812 L106.57382520316395 165.31737402689328 L107.06952649594999 165.98957167177835 L107.612194753437 166.6020421567806 L108.2059008432561 167.14885578998548 L108.8550846017147 167.62285902172258 L109.56455972551912 168.01545896199488 L110.33951242910992 168.31637466660004 L111.18549076354431 168.5133528344636 L112.1083805707989 168.59184689964627 L113.11436288285616 168.53466082610197 L114.20984612574368 168.3215626653513 L115.40136471769782 167.92887870962986 L116.69543353658895 167.3290876318298 L118.0983452874804 166.4904462952419 L119.61589510258752 165.37669603539388 L121.25301393633546 163.94692129508866 L123.01328983324942 162.15566245032912 L124.89835456306281 159.95342172243548 L126.90711342856851 157.28774392784203 L129.03479975707384 154.10509833352313 L131.27184481237373 150.3538252139118 L133.6025714117794 145.98842493108737 L136.00374873737167 140.9754331627939 L138.44309004916155 135.30100747882761 L140.87783647465062 128.98010416823408 L143.25364782613607 122.06670874356553 L145.5041082843545 114.66398220596496 L147.55123353882874 106.9324428029173 L149.30740614090323 99.09357250676749 L150.67912401324233 91.4258145640351 L151.57277481788304 84.25023280806482 L151.90231217958882 77.90455105348519 L151.59821979205242 72.70703292774559 L150.6165946270176 68.91526146460512 L148.9467366668631 66.6881397685575 L146.61552344651022 66.06068859397595 L143.68724539796207 66.93915394516267 L140.25848003072434 69.11863560543742 L136.44874720147504 72.31878970896925 L132.3887023459819 76.22803636035724 L128.20810521360744 80.54533246352372 L124.02559763276834 85.01115339525728 L119.94158811654712 89.42411714484908 L116.03461886293442 93.64428995360498 L112.36081953585891 97.5870112808623 L108.95561508589735 101.21176203766835 L105.83675576233802 104.50981503173668 L103.00786942695456 107.49304485876138 L100.46196869825965 110.18499729975913 L98.18457991019896 112.61442206596669 L96.1563464703841 114.81098178608454 L94.355082877771 116.80266225808597 L92.75732532522652 118.61440066796328 L91.33945569994282 120.26752324776315 L90.07848265694592 121.77968210591021 L88.95255750159913 123.16507269659905 L87.94129122526651 124.43478727089295 L87.02592643895804 125.59721417326503 L86.18940627349271 126.65843070735212 L85.41637241223461 127.62256233840498 L84.69311645068761 128.49209684419097 L84.00750256557893 129.26815158506685 L83.34887473415459 129.95069749868878 L82.70795816822678 130.5387462558535 L82.07676194595135 131.03050827066997 L81.44848781381208 131.42352961452733 L80.81744861499264 131.71481576393032 L80.17899864103023 131.90094977035432 L79.52947729528951 131.97821201101704 L78.86616671660354 131.94270821600085 L78.18726337369368 131.79051196391958 L77.49186305261303 131.51782724600034 L76.77995807725638 131.12117593400413 L76.0524449925434 130.5976139419048 L75.31114027603533 129.94497841814132 L74.55880091240016 129.16216631163866 L73.7991458664824 128.2494419979089 L73.03687364351704 127.20876824274686 L72.27767027154331 126.04415059826154 L71.52820125203328 124.76198045439298 L70.79608040282204 123.37135664652901 L70.08980819772833 121.8843601801175 L69.4186723525163 120.31625193462972 L68.79260419487287 118.68556003214542 L68.22198595734372 117.0140229484221 L67.71740667678736 115.32635749937486 L67.28936791930334 113.64982848933744 L66.94794499409676 112.01360956954784 L66.70241442128088 110.44794251403766 L66.5608637317414 108.98312348913399 L66.52980457338893 107.64836770058234 L66.61381382199828 106.47062482120161 L66.81522917041812 105.47343307831065 L67.1339248479829 104.67590624699498 L67.56718934215131 104.09194254161632 L68.10972032255147 103.72972686872484 L68.75374296338231 103.59156976369604 L69.48924754069088 103.67409147647595 L70.30433187172696 103.96872352691591 L71.18562526007415 104.46246841371637 L72.11876430826617 105.13883589114309 L73.08888802213062 105.97886418559906 L74.08112025529692 106.96213707219134 L75.08101135747508 108.06772090070345 L76.07491707895 109.27496587296953 L77.05030028396675 110.5641389424208 L77.99594875239809 111.91687779335012 L78.90210938200786 113.3164736455869 L79.76054480370327 114.74800360759336 L80.5645224681288 116.19834068651333 L81.30874861962718 117.65607200010267 L81.98926042334048 119.11135439256951 L82.60328916067304 120.5557328644629 L83.1491062119106 121.98194220837182 L83.62586184258326 123.38370696113496 L84.0334248900701 124.7555498957577 L84.37222952785896 126.092615152629 L84.64313351558786 127.39050889346632 L84.84729081078241 128.64515803971105 L84.98604016190114 129.8526861249986 L85.06081032611023 131.0093044030159 L85.07304184105091 132.11121595595057 L85.02412479723873 133.1545305086537 L84.91535177091676 134.1351878592065 L84.74788495000644 135.04888820619456 L84.52273648448384 135.89102813238588 L84.24076118705362 136.65664156298675 L83.90266087452306 137.34034564249882 L83.50899985269565 137.93629217000222 L83.06023128877399 138.43812601081626 L82.55673446789541 138.83895278081104 L81.99886317771252 139.13131909699777 L81.3870056890382 139.30720981911654 L80.72165698095868 139.3580679759308 L80.00350397048967 139.27484446217392 L79.23352451862392 139.04808606325395 L78.41310085753447 138.66807182709337 L77.54414776993784 138.1250091076982 L76.62925529435742 137.40930152563064 L75.6718448649505 136.51190130048644 L74.67633655405677 135.4247574707016 L73.64832340684538 134.14136887180533 L72.59474669570415 132.65744574572068 L71.52406327089261 130.97167581473707 L70.44639310275997 129.08657896692392 L69.37363175877465 127.00941902386073 L68.3195092327189 124.75312158925551 L67.29957371238825 122.33712476818754 L66.33107719416351 119.78806687626353 L65.43274015877859 117.14019587327861 L64.62437574301177 114.43537438001582 L63.92636085714666 111.72255801370507 L63.35895310232886 109.05664957683845 L62.941468139239895 106.49668165854447 L62.69135144514907 104.10335561950427 L62.62319912778224 101.93605958445832 L62.74780145527194 100.04958839682794 L63.07129602774014 98.49087451958397 L63.5945210290854 97.29608798167786 L64.31264975481474 96.48845664592574 L65.21516475823707 96.07708687791487 L66.28619555536179 96.05693634574308 L67.50520288354042 96.4099284987121 L68.84795205941958 97.10703634156312 L70.28768542271227 98.11103649464557 L71.79638500052576 99.37956861160987 L73.34601410973463 100.8681385447752 L74.90963971459776 102.53276679777565 L76.46236196272322 104.33208443995159 L77.9820077015374 106.2287898851433 L79.44957510481994 108.19047846478726 L80.84944222905838 110.18992796781461 L82.169370723118 112.20496257484567 L83.40034634730392 114.21802810494236 L84.53630125057953 116.21560094949425 L85.57376080690645 118.18753039558987 L86.51145218140914 120.12638699611553 L87.34990446499998 122.02686372606513 L88.09106255577606 123.8852549917165 L88.73792988479804 125.69902230697042 L89.2942490755958 127.46644449229201 L89.76422486909766 129.1863437558373 L90.15229010999774 130.85787589864606 L90.46291313303519 132.48037208829095 L90.70044331628469 134.0532202792823 L90.86899068617507 135.57577575079557 L90.97233508695761 137.0472919166797 L91.01386041606595 138.46686424484747 L90.99650965763517 139.83338163834017 L90.92275682950986 141.1454809043093 L90.79459242901848 142.4015009539717 L90.6135194741492 143.59943415505103 L90.38055775963086 144.73687283548924 L90.09625446382843 145.81094935873293 L89.7606997433347 146.81826850484154 L89.37354643541791 147.75483114672124 L88.9340334567581 148.61594845631598 L88.44101294643819 149.39614616328265 L87.8929816606655 150.08905877534062 L87.2881175963346 150.68731422044632 L86.62432331083154 151.18241016383436 L85.89927792604772 151.5645843814268 L85.11050036244688 151.82268314781578 L84.25542694623672 151.94403375499365 L83.33150716286538 151.91433016853927 L82.33632197361783 151.717544612553 L81.26772972963639 151.3358827068467 L80.1240452412096 150.7498057716832 L78.90425788174461 149.93815108012436 L77.60829456411464 148.87838900147324 L76.23733279249001 147.54706464853982 L74.79416745393749 145.92047982634796 L73.28363217029423 143.97567706936383 L71.71307139899753 141.69178867197803 L70.09285252074979 139.0518060175649 L68.4368973837782 136.0448031392634 L66.76319987194262 132.66860735585647 L65.09428012955631 128.93284315361012 L63.457507968594015 124.86217938585784 L61.8852097317919 120.49948566303925 L60.4144580865399 115.90846223821318 L59.08643826174665 111.17517333537782 L57.94529401689607 106.40782774893663 L57.03638948192378 101.73416759171494 L56.40398447970078 97.29600361993297 L56.0884115273423 93.24081084828728 L56.12295418742256 89.71085798749932 L56.53073945936711 86.83099837899613 L57.32204202669562 84.69682763124732 L58.492422215883145 83.36519978940805 L60.022057033828254 82.84891228958045 L61.876470102320276 83.11667554543331 L64.00864644082891 84.09842203763279 L66.36228304632554 85.69489125383294 L68.87573796928972 87.7896036566953 L71.48614879109948 90.26105228352266 L74.13321460713394 92.99322654737011 L76.76225587643394 95.88326676097067 L79.32633981533097 98.84585469028484 L81.78743476494309 101.81462583612289 L84.1166959205797 104.74130473057279 L86.29406826511246 107.59340101090422 L88.30742138265997 110.35123111445309 L90.15141834630117 113.00484628457578 L91.82628444732102 115.55123703351872 L93.33659653085961 117.99200067172515 L94.69017068770783 120.33152452558667 L95.8970905893764 122.57565420286772 L96.96889257920942 124.73077408769899 L97.91790615506812 126.80321347444632 L98.75673804029432 128.79889495603615 L99.49788274389704 130.7231533234279 L100.15344066565478 132.5806677271699 L100.73492508349264 134.37546399578108 L101.25314082426702 136.11095624808058 L101.7181194382765 137.7900067522594 L102.13909788401719 139.4149904158278 L102.52452985934185 140.98785564811936 L102.88212087164773 142.51017702120055 L103.21887987197547 143.98319756012057 L103.54118177289682 145.40785996303083 L103.85483643530476 146.78482686373758 L104.16516076230194 148.1144906168124 L104.47705140097707 149.3969731647667 L104.79505624737513 150.6321164481135 L105.123443497767 151.8194636168938 L105.46626740981316 152.9582310447589 L105.82743024735697 154.04727086396332 L106.21074009665593 155.08502344963443 L106.61996437130531 156.06945899544718 L107.05887887641909 156.99800704844733 L107.53131228524147 157.86747261684718 L108.04118579552684 158.67393724354076 L108.59254757768599 159.41264326935593 L109.18960139734611 160.07785942419483 L109.83672848352093 160.6627259275635 L110.53850130833806 161.15907752080545 L111.29968743003622 161.55724338951768 L112.12524090955137 161.84582390323214 L113.02027802238169 162.01144568822855 L113.99003303173231 162.03849900943064 L115.03978865038947 161.90886509574062 L116.17477449192037 161.60164631176593 L117.40002531163887 161.0929194537377 L118.72018921521413 160.3555424875617 L120.13927437737473 159.3590583154437 L121.66032136518598 158.06975609792758 L123.28498723401373 156.4509713688438 L125.01302768151726 154.46373003871474 L126.84166547653706 152.06786646548454 L128.76483820115408 149.22376804363154 L130.77232746262635 145.8949110467793 L132.84878683787144 142.05134336537878 L134.97270868510944 137.6742230192283 L137.11540201732993 132.76141623916135 L139.24009513686354 127.33397360659214 L141.30132551192992 121.44302155536278 L143.24482918480257 115.17623342284696 L145.00818079648946 108.66262171949035 L146.5224443534003 102.07402241350641 L147.71505005551396 95.62149130669113 L148.51398984693026 89.54511646121964 L148.85321069044932 84.09665743408195 L148.67879260086693 79.51598870924144 L147.95518038508072 76.00429847925798 L146.67048751413995 73.69877537943876 L144.83982198493254 72.65429511074339 L142.5057862512616 72.836740015798 L139.73578339596096 74.12999237534336 L136.61641230089342 76.35510611053931 L133.2458570583005 79.29701912981889 L129.72556188666465 82.73264958386156 L126.1525126416426 86.45477871193225 L122.61314302381956 90.28825184382856 L119.17939096023663 94.09764855401194 L115.90693066780803 97.78767431223089 L112.83523702947596 101.29860877759307 L109.988955360021 104.59925817418473 L107.38003082350905 107.67936155002087 L105.01013853026366 110.54269166458542 L102.87308550237438 113.2014459837632 L100.95698421210173 115.67206278445511 L99.24610081659947 117.97233132753702 L97.72235300014442 120.11954953772246 L96.36647569635707 122.12946230142525 L95.15889491643775 124.01574250675506 L94.08035769653303 125.78982464453821 L93.1123656586354 127.46094988344862 L92.23745496717353 129.0363240330175 L91.43935914211319 130.52132321476347 L90.70308471871938 131.91970665899328 L90.01492384514916 133.23381325754661 L89.36242286158243 134.4647300175505 L88.73432174975787 135.61242792490458 L88.12047600740517 136.67586520449296 L87.51176987405884 137.65306052755346 L86.90002779378506 138.54114007868446 L86.277929438201 139.33636306498474 L85.63893243776167 140.0341305839483 L84.97720610438797 140.62898301057604 L84.28757881087571 141.11459138568642 L83.5655012683366 141.48374880066723 L82.80702766405103 141.72836855452493 L82.00881644252101 141.8394969522549 L81.16815238475957 141.8073500350864 L80.2829915126757 141.62138526353675 L79.35203015639834 141.27042114544196 L78.37479920089942 140.74281987604337 L77.35178398910024 140.02675000148778 L76.28456950201294 139.1105475654097 L75.17600914982495 137.98319461847797 L74.030413672023 136.63493263425474 L72.85375414694053 135.05802434667825 L71.65386986780601 133.24766969649744 L70.44066783376653 131.20306876856907 L69.22629592370555 128.9286057856003 L68.02526673602546 126.4351028624445 L66.85450410021141 123.7410607952522 L65.7332802107313 120.87376878485219 L64.68300934537744 117.87013008533813 L63.72686563857903 114.77702324148427 L62.889198941267466 111.6510084783167 L62.19473578178244 108.55720692968325 L61.6675725572886 105.56723656992365 L61.329994804555575 102.75618779212616 L61.20118741446936 100.19875903015561 L61.29593160478339 97.96483133197977 L61.62340920908435 96.11490998181382 L62.18624647918952 94.69596249974423 L62.979922227863526 93.73819895316913 L63.992635938715125 93.2532511314557 L65.20568242117902 93.23401708972179 L66.5943179772066 93.6561823993319 L68.12904021944138 94.4811670045699 L69.77715218570087 95.6600392996852 L71.50445141575968 97.13783321033341 L73.27688109059113 98.85771522471215 L75.06200164649502 100.76455883400014 L76.83018049830187 102.80765276866416 L78.55544481033436 104.94244899911267 L80.21598796892957 107.1314075151715 L81.79435735616933 109.34409550616928 L83.27737556964995 111.55674486671923 L84.65585909518691 113.75147318684424 L85.92419968629252 115.91534492634648 L87.0798675240311 118.03940687050542 L88.1228848959029 120.11778736394734 L89.05530735369834 122.1469097854849 L89.8807379780751 124.1248406836202 L90.60389058030783 126.05077240795676 L91.23020986106224 127.92462771944287 L91.76555074458749 129.74676782336468 L92.21591509353574 131.51778357887045 L92.58724145933262 133.23835062264283 L92.88524209481895 134.90913153395908 L93.11528084200745 136.5307110927243 L93.28228545388994 138.10355359900024 L93.3906882176276 139.62797383471013 L93.44438927072264 141.10411542509405 L93.44673763780649 142.53193207299387 L93.40052569243048 143.91116842567766 L93.30799341945793 145.24133825193525 L93.17083949118012 146.52169822528418 L92.9902367589248 147.7512159935291 L92.76685029566562 148.9285314240916 L92.50085660436243 150.05190999764466 L92.19196303636213 151.1191873201322 L91.83942685224827 152.1277036689575 L91.44207371444108 153.07422741256715 L90.99831573879015 153.95486607239351 L90.50616956498278 154.7649637631021 L89.96327524770204 155.4989837885766 L89.3669171381617 156.15037533506134 L88.71404833599595 156.71142355325938 L88.00132076230642 157.17308294375624 L87.22512345392175 157.52479496947694 L86.38163232354076 157.7542923657881 L85.46687538426897 157.84739489767645 L84.47681830749099 157.78780456763383 L83.4074761654771 157.5569128009035 L82.25505827983244 157.1336382610524 L81.0161541967305 156.49432202686646 L79.68796983326298 155.61271719606293 L78.26862360715816 154.4601227271303 L76.75751259386735 153.00572631460923 L75.15575803406529 151.2172375373417 L73.46673725397358 149.06190864193655 L71.69670447807471 146.50805281458588 L69.85549513397686 143.52717320873444 L67.9572959683818 140.09680221164382 L66.02144554695536 136.20410847703204 L64.07320580879207 131.85024604089054 L62.144415529592436 127.05528263031516 L60.273902799498934 121.86334575295199 L58.507500659034086 116.34737176601843 L56.897486236786904 110.61256610192319 L55.50126145940368 104.79744877405533 L54.37912790254258 99.07127344258629 L53.59109424147377 93.6268001523384 L53.19279957823619 88.6679830529196 L53.230831474795544 84.39312902058694 L53.737932128212805 80.97535102887181 L54.72876323674289 78.54334178859898 L56.19696922050241 77.16615310425365 L58.11418019689455 76.84535905023137 L60.43131439361662 77.51657865441491 L63.08212439359479 79.06016920462092 L65.98849344594223 81.31869859955995 L69.066659804213 84.1173605522762 L72.2334271395895 87.28328219552476 L75.41152891906238 90.66061926285363 L78.53359435473025 94.11992023810767 L81.54450660704367 97.561815919683 L84.40224713982109 100.91618375794852 L87.07752030221009 104.13839419745958 L89.55253571557375 107.20417996142498 L91.8193156998874 110.10430689343141 L93.87782868877937 112.8397815538731 L95.73416286787175 115.41794396906596 L97.39887159147786 117.84952011800928 L98.88555584469601 120.14654857305524 L100.20970234536166 122.32102356947057 L101.38776680950208 124.3840815946686 L102.4364763247309 126.34557428781747 L103.37231840986345 128.21389901440202 L104.21118363824604 129.99598924739064 L104.96813109193083 131.69739448427782 L105.6572497023786 133.32240182305526 L106.29159270578509 134.87416830154933 L106.8831664466338 136.35484531649445 L107.44295834315461 137.76568481364006 L107.98099189404782 139.10712241206596 L108.50639915779234 140.37883600526737 L109.02750321618608 141.57978031890653 L109.55190479901975 142.7081988968214 L110.08656855422497 143.76161539896748 L110.63790544929715 144.73680619137744 L111.21184852965642 145.62975617770877 L111.81391977478641 146.43559980131468 L112.44928611383416 147.14854923989233 L113.12280281392862 147.7618121076175 L113.83904245807162 148.26750155184993 L114.60230760431205 148.65654256442667 L115.41662498333861 148.91857970960268 L116.2857187696743 149.04189339844737 L117.21296008065208 149.01333441426544 L118.20128945648753 148.81828971099827 L119.25310871003441 148.44069663611836 L120.37013828640022 147.86312768028404 L121.55323625364392 147.0669735228158 L122.80217541189927 146.03275822737925 L124.11537596650055 144.74062634969835 L125.48959302508507 143.1710464194427 L126.91956116790402 141.30577713966625 L128.39760286042022 139.12913937935332 L129.91321387746262 136.62962551008184 L131.45264745130265 133.80185409006947 L132.99852958484115 130.64883835043267 L134.52955051646396 127.18447816164348 L136.02029065792019 123.43610631372508 L137.44125150119402 119.44682492881401 L138.759169931311 115.27726803745782 L139.93769389562735 111.00634302387614 L140.93848355695394 106.73046819263769 L141.7227702803949 102.56087394997323 L142.25335345554163 98.61870544736229 L142.49694385482363 95.0279699999949 L142.42667996264657 91.90679003269057 L142.02456576094355 89.357877407779 L141.2835258052799 87.45951633052778 L140.20876780134904 86.25849087832005 L138.81819905402398 85.76621629032235 L137.1417609563249 85.95881885586206 L135.21970583891917 86.78116605376863 L133.10000756717133 88.15408101434227 L130.83523015396267 89.98340883464266 L128.47924487225976 92.16939148358128 L126.0841735492551 94.61497717218458 L123.69785491511067 97.23213572832896 L121.3620102749077 99.94580126324036 L119.11115798201976 102.69555261320212 L116.97222077828457 105.43546890594443 L114.96470104368736 108.1327377463747 L113.10126840773512 110.76558089245077 L111.38860491814134 113.32095675799025 L109.82837396743294 115.79235863379459 L108.41820962803703 118.17789337018506 L107.15265473300786 120.478718915913 L106.02400398778309 122.69784648221476 L105.02303041315062 124.83927078938132 L104.13958921237942 126.90737252054984 L103.36310348861493 128.9065329880331 L102.68294228579265 130.84090564190285 L102.0887043804982 132.71429776055362 L101.57042213360239 134.53012548028934 L101.11869930513443 136.29141456615858 L100.72479560539523 138.0008272104496 L100.38066927711398 139.66070143095357 L100.07898741696403 141.2730943963204 L99.81311219285668 142.83982444228462 L99.5770696747992 144.3625089180291 L99.36550670955715 145.84259656689207 L99.17364014577684 147.28139411774362 L98.99720175487246 148.68008731914196 L98.83238138406077 150.0397569236097 L98.67577020754541 151.3613902240337 L98.52430539444066 152.64588872898133 L98.37521707175746 153.8940724865277 L98.22597811240388 155.1066814578944 L98.0742570074882 156.2843742214606 L97.91787387638166 157.42772416468182 L97.75475951556778 158.53721320058185 L97.58291727832527 159.61322292752348 L97.40038750327291 160.6560230343291 L97.20521416367309 161.66575663454813 L96.9954133854146 162.64242208993952 L96.7689434753184 163.5858507497766 L96.52367610958626 164.4956798848189 L96.25736835276017 165.37131992801164 L95.96763520955352 166.2119149434076 L95.651922455604 167.0162950258086 L95.30747955008647 167.78291908191986 L94.93133250612026 168.5098061559596 L94.52025668852421 169.19445313678335 L94.07074962916673 169.83373632053772 L93.57900410672207 170.42379390807963 L93.04088194176987 170.95988610261787 L92.4518892251289 171.4362290643687 L91.80715404675831 171.84579861685987 L91.10140824947705 172.180099351056 L90.32897532744873 172.42889474362647 L89.48376736238443 172.57989425362032 L88.55929488704628 172.61839432330467 L87.54869483977203 172.52687212547792 L86.4447833850036 172.28453425504836 L85.24014238389077 171.86682802620246 L83.92725075821488 171.2449315073324 L82.49867492660266 170.38525106935992 L80.94733587537723 169.24897347527616 L79.26687412547228 167.79174503860935 L77.45213756331303 165.96358475673787 L75.49982022581685 163.70918273639157 L73.40928164590238 160.96878946577115 L71.1835746382457 157.6799624654161 L68.83070198131567 153.78049625410193 L66.36510589952124 149.21290258849564 L63.809364169063585 143.9308014338971 L61.19601810261223 137.90748446312995 L58.569386251581335 131.14666234718698 L55.987122009219696 123.69493908530521 L53.52115894150491 115.654824891956 L51.25757255086019 107.19612493860272 L49.294807283906266 98.562482707318 L47.73972937091689 90.06907709831329 L46.701139446011 82.08754907000086 L46.28077369964185 75.01581879704219 L46.562445376981294 69.2339188673374 L47.600731897705955 65.05188997276699 L49.41126612745098 62.66058419839922 L51.96492208556707 62.0984426925894 L55.18772245913107 63.24483742152859 L58.96710503784105 65.84326573063083 L63.163594139493846 69.54825363182755 L67.62552767123364 73.98261736250467 L72.20385671439165 78.79009226827458 L76.76437423230598 83.67243114875613 L81.1957949421871 88.40707974320176 L85.41337876368463 92.84784089146059 L89.35878688009281 96.91433919794024 L92.99735731683879 100.57646554609114 L96.31402441337228 103.83848426890268 L99.3088626055343 106.7254666503882 L101.99289692217219 109.27302985285966 L104.38451526031244 111.52030196880571 L106.50659396496782 113.505537787273 L108.384312395391 115.26368584928586 L110.04356505357629 116.8252754911896 L111.50985777767889 118.21613060273614 L112.80757763977091 119.45755866485692 L113.95954090860656 120.56678165033898 L114.98674162391191 121.55746318484458 L115.90824077804794 122.4402470939194 L116.74115103855031 123.2232621902211 L117.50068393009944 123.91257290962434 L118.2002356269788 124.51257006730188 L118.85149443245973 125.02630415211874 L119.46455812738279 125.45576767255254 L120.0480530955883 125.80213473344787 L120.60924983899764 126.0659662938461 L121.15417146006513 126.24738906854775 L121.68769312438312 126.34625516735896 L122.21363157595744 126.36228852803612 L122.73482457375292 126.29522310021397 L123.25320073009681 126.14493662362072 L123.76984071504612 125.91158272383623 L124.28503118348863 125.59572291337878 L124.79831310721394 125.19845891962561 L125.3085264648725 124.72156455206753 L125.81385346154563 124.16761506897801 L126.31186261121356 123.54011072495686 L126.79955610713009 122.84358991668881 L127.27342290837406 122.0837261628716 L127.72949986268956 121.26740215293795 L128.16344294128822 120.40275340212938 L128.57061025713725 119.49917380146624 L128.94615795671004 118.56727569996104 L129.28514930937394 117.61879823844049 L129.58267637793122 116.6664595642983 L129.83399256900935 115.72375131867236 L130.03465318856084 114.80467732706236 L130.18065994702397 113.92344254602938 L130.26860427489095 113.09410270022154 L130.2958034419526 112.3301892515693 L130.2604229445524 111.64432787071317 L130.16157854338974 111.04787091771294 L129.99941177646375 110.55056514840257 L129.77513376526542 110.16027466834387 L129.49103364350177 109.88277601233126 L129.15044986706602 109.72163735443851 L128.75770485291963 109.67818772832618 L128.3180056419467 109.75157543198605 L127.83731536884645 109.93890827086474 L127.3222020460885 110.23546269436989 L126.7796723661506 110.63494479140451 L126.2169987979709 111.12978388367065 L125.64154817635398 111.71143916870416 L125.06061930762775 112.37070133375374 L124.48129595323073 113.09797389926621 L123.91032005776694 113.88352275275388 L123.3539884282389 114.71768637247341 L122.81807440844231 115.59104314474841 L122.3077745631889 116.49453558984473 L121.82767909052059 117.41955400667842 L121.38176367476652 118.35798393812436 L120.97339979875801 119.30222296996666 L120.60538013720698 120.24517281022287 L120.27995551948571 121.18021249842597 L119.99888002941083 122.10115812677142 L119.7634610474079 123.00221376787904 L119.5746113832018 123.87791752490602 L119.43290104735999 124.72308584666682 L119.33860662843057 125.53275855077989 L119.29175664923132 126.3021464122713 L119.292171650348 127.02658272254845 L119.33949807854272 127.70147990744785 L119.43323533685239 128.32229210591711 L119.57275558139818 128.88448453935058 L119.75731603116833 129.38351052902593 L119.98606369810938 129.81479712749547 L120.25803255469854 130.17374050055622 L120.57213324515365 130.45571241016086 L120.92713552593138 130.65607938428562 L121.32164370319687 130.7702363932449 L121.75406543195515 130.7936570544013 L122.22257436610975 130.72196252325617 L122.72506731325517 130.55101125489892 L123.25911676417786 130.2770116827675 L123.82191994493364 129.89665949917986 L124.41024588629978 129.40730056376725 L125.02038242420119 128.80711943748844 L125.64808553152486 128.0953520705079 L126.2885339233115 127.27251920615059 L126.93629244794953 126.34067457622754 L127.5852883354714 125.30365898392974 L128.22880486108272 124.16734800560033 L128.85949731909017 122.93987750168571 L129.46943629288327 121.6318277439725 L130.05018294095828 120.25634420780715 L130.59290028442334 118.82917153110358 L131.0885031778677 117.36857746757143 L131.52784770692827 115.89514650937261 L131.90195817626423 114.43142873559206 L132.20228671130496 113.0014385722423 L132.4209969843571 111.63001028154113 L132.55125999572277 110.34203129921237 L132.58754660435932 109.16158954579988 L132.52589908930776 108.11108455460044 L132.3641629145155 107.21036241126444 L132.10216046396073 106.4759389428983 L131.7417910324253 105.92037279348993 L131.28704576578696 105.55183950006365 L130.74393221395513 105.37394028929984 L130.12031008181577 105.38575720691811 L129.42564683218203 105.58214249936485 L128.6707081351891 105.95420837699616 L127.86720298284597 106.48996652729728 L127.02740603592204 107.17505714575567 L126.16378020579108 107.99350556423553 L125.28862070635012 108.92845012661222 L124.41373825142978 109.96279601797445 L123.55019433165961 111.07976391366013 L122.70809626555018 112.26331713587248 L121.89645462038416 113.49846444594957 L121.1231011418567 114.77144628918552 L120.39466183810002 116.06981961827542 L119.71657746851747 117.38246037066446 L119.09316236691905 118.69950374206354 L118.52769214469303 120.01224130393071 L118.02251117229741 121.31299153292757 L117.57915160528378 122.59495715385917 L117.1984568958895 123.85207939294347 L116.88070403680267 125.07889617215076 L116.62572008498037 126.27040866579453 L116.43298971690936 127.42195857860708 L116.30175161578649 128.52911699193135 L116.23108235869327 129.5875846088707 L116.21996715265374 130.59310263167393 L116.26735727186728 131.5413732408186 L116.37221439259504 132.4279886375156 L116.53354222977215 133.24836779553294 L116.75040597447136 133.99770039607017 L117.02194003747124 134.67089785810475 L117.34734454364704 135.2625519066895 L117.72587091536815 135.76690173382104 L118.15679674989471 136.1778114979943 L118.63939005455146 136.48876067914074 L119.17286277302168 136.69285065291035 L119.75631343641656 136.78283176231906 L120.38865872604862 136.75115612193034 L121.06855376651563 136.59006234486745 L121.79430110725222 136.2916992606553 L122.56374863193085 135.8482963765567 L123.37417709567576 135.25238916076194 L124.2221786698477 134.49710696773803 L125.10352881168454 133.576530296676 L126.0130550025321 132.4861217282036 L126.94450742847876 131.22323094062256 L127.89043849633349 129.78766829084012 L128.84210012568406 128.18233326660106 L129.78936990880092 126.4138735829354 L130.72071927426248 124.49333806344382 L131.62323841706302 122.43677249847107 L132.48273355299736 120.26569388517187 L133.28391151601372 118.0073671079441 L134.0106643021755 115.6948022514253 L134.64646138007714 113.36639387110915 L135.17485012238325 111.06513907554312 L135.5800545973106 108.83740154060524 L135.84765073207606 106.7312337128643 L135.9652826893387 104.79432629319548 L135.92337298171088 103.07171554503884 L135.71576965170289 101.60343443776485 L135.3402701201843 100.42233067244743 L134.7989649610156 99.55228189870591 L134.0983567519424 99.00700919084505 L133.24922862560769 98.78962496114238 L132.26626188212018 98.89296048103833 L131.16742835365756 99.30061769519975 L129.97320684572816 99.9885996989527 L128.70569000813893 100.92731142337477 L127.3876558114678 102.0836970249325 L126.04167571113238 103.42329412534525 L124.689320794006 104.91202964246213 L123.35051041008502 106.51764428279773 L122.04302836189746 108.2106984197916 L120.78221287997155 109.96516917829285 L119.58081080747829 111.75868988040997 L118.44897503713554 113.57250638014544 L117.39437762704718 115.39123198670366 L116.4224087006329 117.20247770854402 L115.53643226492696 118.99642218209054 L114.7380733552424 120.76537013627308 L114.02751539678128 122.50333275572248 L113.40379153194007 124.20564979212676 L112.86505831028838 125.86866263270934 L112.40884422455235 127.48943990524566 L112.03226893667512 129.06555226067792 L111.73223164291035 130.59489019483192 L111.50556892872525 132.0755175741477 L111.34918375898047 133.50555339592256 L111.26014804748365 134.88307482041057 L111.23578166125682 136.20603534890535 L111.27371083549065 137.47219297712698 L111.37190888603747 138.67904409684695 L111.52872187173132 139.82375978237462 L111.74288152781006 140.90312185782295 L112.01350740000505 141.91345680117553" stroke="#212121" stroke-width="2" fill="none"></path>
</svg>